<?xml version="1.0" encoding="utf-8"?>
<!-- Generator: Adobe Illustrator 19.2.1, SVG Export Plug-In . SVG Version: 6.00 Build 0)  -->
<svg version="1.1" id="Layer_1" xmlns="http://www.w3.org/2000/svg" xmlns:xlink="http://www.w3.org/1999/xlink" x="0px" y="0px"
	 viewBox="0 0 36 36" style="enable-background:new 0 0 36 36;" xml:space="preserve">
<style type="text/css">
	.st0{fill:#78CBEF;}
	.st1{fill:#547BBC;}
	.st2{fill:#FFFFFF;}
</style>
<rect x="-48.5" y="1.1" class="st0" width="34" height="34"/>
<path class="st1" d="M31.9,36H4.1C1.9,36,0,34.2,0,31.9V4.1C0,1.8,1.9,0,4.1,0h27.7C34.1,0,36,1.8,36,4.1v27.7
	C36,34.2,34.1,36,31.9,36z"/>
<path class="st2" d="M-22.9,13.7c-0.6,0.3-1.3,0.5-2,0.6c0.7-0.4,1.3-1.1,1.5-1.9c-0.7,0.4-1.4,0.7-2.2,0.8
	c-0.6-0.7-1.5-1.1-2.6-1.1c-1.9,0-3.5,1.6-3.5,3.5c0,0.3,0,0.5,0.1,0.8c-2.9-0.1-5.5-1.5-7.2-3.7c-0.3,0.5-0.5,1.1-0.5,1.8
	c0,1.2,0.6,2.3,1.6,2.9c-0.6,0-1.1-0.2-1.6-0.4v0c0,1.7,1.2,3.1,2.8,3.4c-0.3,0.1-0.6,0.1-0.9,0.1c-0.2,0-0.4,0-0.7-0.1
	c0.4,1.4,1.7,2.4,3.3,2.4c-1.2,0.9-2.7,1.5-4.3,1.5c-0.3,0-0.6,0-0.8,0c1.5,1,3.4,1.6,5.4,1.6c6.4,0,9.9-5.3,9.9-9.9
	c0-0.2,0-0.3,0-0.5C-24,15-23.4,14.4-22.9,13.7"/>
<path class="st2" d="M13.7,15h1.9v-1.8c0-0.8,0-2,0.6-2.8C16.7,9.5,17.6,9,19,9c2.3,0,3.3,0.3,3.3,0.3l-0.5,2.8c0,0-0.8-0.2-1.5-0.2
	c-0.7,0-1.4,0.3-1.4,1V15h3l-0.2,2.7H19V27h-3.5v-9.4h-1.9V15z"/>
</svg>
