<?xml version="1.0" encoding="utf-8"?>
<!-- Generator: Adobe Illustrator 19.2.1, SVG Export Plug-In . SVG Version: 6.00 Build 0)  -->
<svg version="1.1" id="Layer_1" xmlns="http://www.w3.org/2000/svg" xmlns:xlink="http://www.w3.org/1999/xlink" x="0px" y="0px"
	 viewBox="0 0 36 36" style="enable-background:new 0 0 36 36;" xml:space="preserve">
<style type="text/css">
	.st0{fill:url(#SVGID_1_);}
	.st1{fill:#FFFFFF;}
</style>
<linearGradient id="SVGID_1_" gradientUnits="userSpaceOnUse" x1="-589.3628" y1="-656.084" x2="-562.6372" y2="-617.916" gradientTransform="matrix(1 0 0 -1 594 -619)">
	<stop  offset="0" style="stop-color:#FFB900"/>
	<stop  offset="1" style="stop-color:#9100EB"/>
</linearGradient>
<path class="st0" d="M36,31.5c0,2.5-2,4.5-4.5,4.5h-27C2,36,0,34,0,31.5v-27C0,2,2,0,4.5,0h27C34,0,36,2,36,4.5V31.5z"/>
<g>
	<g>
		<path class="st1" d="M24.2,31.5H11.8c-4,0-7.3-3.3-7.3-7.3V11.8c0-4,3.3-7.3,7.3-7.3h12.4c4,0,7.3,3.3,7.3,7.3v12.4
			C31.5,28.2,28.2,31.5,24.2,31.5z M11.8,6.8C9,6.8,6.8,9,6.8,11.8v12.4c0,2.8,2.3,5.1,5.1,5.1h12.4c2.8,0,5.1-2.3,5.1-5.1V11.8
			c0-2.8-2.3-5.1-5.1-5.1H11.8z"/>
	</g>
	<g>
		<path class="st1" d="M18,24.8c-3.7,0-6.8-3-6.8-6.8s3-6.8,6.8-6.8s6.8,3,6.8,6.8S21.7,24.8,18,24.8z M18,13.5
			c-2.5,0-4.5,2-4.5,4.5s2,4.5,4.5,4.5s4.5-2,4.5-4.5S20.5,13.5,18,13.5z"/>
	</g>
	<g>
		<circle class="st1" cx="25.2" cy="10.8" r="1.5"/>
	</g>
</g>
</svg>
